<svg width="84" height="84" viewBox="0 0 84 84" fill="none" xmlns="http://www.w3.org/2000/svg">
<path id="Vector" d="M42 0C40.9306 0 40.1208 0.41739 39.214 0.916408C38.3072 1.41546 37.3509 2.05759 36.4251 2.69262C35.4992 3.32766 34.5985 3.95563 33.8257 4.45187C33.053 4.94802 32.3545 5.3025 32.1796 5.34847C32.0045 5.39663 31.2244 5.45 30.3071 5.40785C29.3898 5.35969 28.284 5.25176 27.1647 5.16462C26.0453 5.07842 24.9268 5.01061 23.8921 5.03168C22.8575 5.05083 21.9361 5.09971 21.0099 5.6313C20.0838 6.16577 19.5829 6.93525 19.0469 7.82047C18.5109 8.7055 18.0152 9.72656 17.5309 10.7394C17.0466 11.7521 16.5688 12.7657 16.1478 13.5819C15.7267 14.3979 15.3029 15.0434 15.1748 15.1714C15.0467 15.2998 14.3985 15.7233 13.5823 16.1444C12.7661 16.5658 11.7526 17.026 10.7397 17.5105C9.72685 17.9951 8.70603 18.5075 7.82073 19.0435C6.93548 19.5789 6.16621 20.0633 5.63148 20.9894C5.09671 21.9156 5.05624 22.8369 5.03468 23.8715C5.0136 24.9061 5.09713 26.0445 5.18459 27.1638C5.27176 28.2831 5.36456 29.3888 5.40805 30.3061C5.45112 31.2237 5.39874 32.0006 5.35147 32.1756C5.30451 32.3509 4.96808 33.0518 4.47182 33.8246C3.97556 34.5975 3.33055 35.498 2.69554 36.4239C2.06048 37.3501 1.43493 38.2861 0.936233 39.1928C0.437567 40.0999 0 40.9292 0 41.9986C0 43.068 0.43748 43.8778 0.936233 44.7846C1.43488 45.6916 2.06053 46.6277 2.69554 47.5535C3.33059 48.4798 3.97554 49.3998 4.47182 50.1726C4.96808 50.9456 5.30453 51.6438 5.35147 51.8187C5.39843 51.994 5.45105 52.7541 5.40805 53.6713C5.36492 54.5889 5.27166 55.6943 5.18459 56.8136C5.09743 57.9328 5.01323 59.0712 5.03468 60.1059C5.05575 61.1405 5.09701 62.0619 5.63148 62.988C6.16617 63.9142 6.93544 64.4177 7.82073 64.9537C8.70597 65.4892 9.72685 65.9826 10.7397 66.4669C11.7526 66.9516 12.7662 67.4118 13.5823 67.833C14.3985 68.2544 15.0467 68.6973 15.1748 68.8258C15.3028 68.9541 15.7267 69.5991 16.1478 70.4153C16.5688 71.2314 17.0466 72.2281 17.5309 73.2409C18.0152 74.2537 18.511 75.2716 19.0469 76.1569C19.5829 77.042 20.0837 77.8311 21.0099 78.3659C21.9361 78.9004 22.8575 78.9435 23.8921 78.9655C24.9268 78.9847 26.0453 78.898 27.1647 78.8156C28.284 78.7294 29.3897 78.6324 30.3071 78.5893C31.2244 78.5412 32.0046 78.6003 32.1796 78.6487C32.3545 78.6963 33.053 79.0322 33.8257 79.5283C34.5984 80.0245 35.4992 80.6695 36.4251 81.3046C37.3509 81.9396 38.3072 82.5652 39.214 83.0638C40.1208 83.5629 40.9306 84 42 84C43.0694 84 43.8821 83.5629 44.7889 83.0638C45.6957 82.5648 46.6491 81.9395 47.5749 81.3046C48.5008 80.6695 49.4044 80.0246 50.1771 79.5283C50.9498 79.0322 51.6483 78.6956 51.8233 78.6487C51.9983 78.6005 52.7755 78.5472 53.6929 78.5893C54.6102 78.6375 55.716 78.7294 56.8354 78.8156C57.9547 78.9018 59.076 78.9875 60.1107 78.9655C61.1454 78.9464 62.0639 78.8975 62.9901 78.3659C63.9162 77.8314 64.4199 77.0421 64.9559 76.1569C65.4918 75.2719 65.9877 74.2537 66.472 73.2409C66.9562 72.2281 67.434 71.2315 67.8551 70.4153C68.2761 69.5993 68.7 68.9539 68.8281 68.8258C68.9562 68.6974 69.6015 68.2536 70.4177 67.833C71.2339 67.4116 72.2503 66.9514 73.2631 66.4669C74.276 65.9822 75.277 65.4896 76.1623 64.9537C77.0476 64.4173 77.8338 63.9141 78.3685 62.988C78.9032 62.0618 78.9466 61.1405 78.9682 60.1059C78.989 59.0712 78.9057 57.9328 78.8182 56.8136C78.7311 55.6943 78.6383 54.5886 78.5948 53.6713C78.5516 52.7537 78.6041 51.9937 78.6514 51.8187C78.6984 51.6435 79.0319 50.9453 79.5282 50.1726C80.0245 49.3997 80.6723 48.4794 81.3073 47.5535C81.9423 46.6273 82.5679 45.6913 83.0666 44.7846C83.5652 43.8775 84 43.068 84 41.9986C84 40.9292 83.5654 40.0996 83.0666 39.1928C82.5679 38.2858 81.9423 37.3497 81.3073 36.4239C80.6722 35.4977 80.0245 34.5973 79.5282 33.8246C79.0319 33.0516 78.6983 32.3506 78.6514 32.1756C78.6043 32.0003 78.5518 31.2238 78.5948 30.3061C78.6381 29.3885 78.7312 28.2831 78.8182 27.1638C78.9054 26.0445 78.9896 24.9061 78.9682 23.8715C78.9474 22.8369 78.903 21.9156 78.3685 20.9894C77.8338 20.0632 77.0476 19.5794 76.1623 19.0435C75.2771 18.5071 74.276 17.9948 73.2631 17.5105C72.2503 17.0258 71.2338 16.5656 70.4177 16.1444C69.6015 15.7229 68.9562 15.2994 68.8281 15.1714C68.7 15.0431 68.2762 14.398 67.8551 13.5819C67.434 12.7658 66.9563 11.7521 66.472 10.7394C65.9877 9.72656 65.4919 8.70578 64.9559 7.82047C64.4199 6.93545 63.9163 6.16596 62.9901 5.6313C62.064 5.09684 61.1454 5.05277 60.1107 5.03168C59.076 5.01252 57.9547 5.08148 56.8354 5.16462C55.716 5.25083 54.6103 5.36478 53.6929 5.40785C52.7756 5.45602 51.9983 5.39691 51.8233 5.34847C51.6483 5.3003 50.9499 4.94805 50.1771 4.45187C49.4044 3.95573 48.5008 3.32756 47.5749 2.69262C46.6491 2.05759 45.6957 1.41504 44.7889 0.916408C43.8821 0.417385 43.0694 0 42 0ZM42 2.8991C42.0134 2.8991 42.6626 3.05487 43.4029 3.46194C44.1432 3.86904 45.0255 4.44905 45.9288 5.06846C46.832 5.68817 47.7485 6.3544 48.6045 6.90408C49.4604 7.45387 50.2026 7.90384 51.0737 8.13726C51.9449 8.37097 52.8069 8.33507 53.823 8.28718C54.8392 8.23901 55.9697 8.14805 57.0616 8.06376C58.1536 7.97755 59.2094 7.91357 60.0541 7.93081C60.8989 7.94997 61.5387 8.13059 61.5504 8.13726C61.5619 8.14383 62.0293 8.59412 62.4668 9.31669C62.9044 10.0398 63.3973 11.0043 63.8698 11.9923C64.3423 12.9804 64.8063 14.0043 65.2727 14.9084C65.7392 15.8126 66.1511 16.5731 66.7887 17.2107C67.4265 17.8486 68.1871 18.2603 69.0911 18.7267C69.9951 19.1931 71.0192 19.6575 72.0073 20.1296C72.9954 20.6018 73.9433 21.0756 74.6661 21.5127C75.3888 21.9504 75.8557 22.4364 75.8625 22.4489C75.8691 22.4582 76.0514 23.1007 76.0689 23.9451C76.0859 24.7899 76.0208 25.8483 75.936 26.9403C75.8507 28.0322 75.7408 29.1598 75.6928 30.176C75.6451 31.192 75.6096 32.054 75.8427 32.9252C76.0761 33.7958 76.5488 34.5214 77.0985 35.3774C77.6482 36.2337 78.2921 37.1668 78.9116 38.07C79.5311 38.9732 80.1336 39.8553 80.5408 40.5957C80.9479 41.3361 81.1008 41.9851 81.1008 41.9986C81.1008 42.0079 80.9479 42.641 80.5408 43.3817C80.1336 44.1221 79.5311 45.024 78.9116 45.9272C78.292 46.8305 77.6482 47.7469 77.0985 48.6029C76.5488 49.4592 76.0761 50.2009 75.8427 51.072C75.6092 51.9427 75.6447 52.8051 75.6928 53.8212C75.7404 54.8373 75.8512 55.948 75.936 57.0399C76.0212 58.1319 76.0866 59.2075 76.0689 60.0522C76.0514 60.897 75.8692 61.5366 75.8625 61.5484C75.8559 61.5577 75.3888 62.0271 74.6661 62.4648C73.9433 62.9025 72.9954 63.3753 72.0073 63.8478C71.0192 64.3201 69.9952 64.8037 69.0911 65.2705C68.187 65.7369 67.4265 66.1293 66.7887 66.7667C66.151 67.4046 65.7391 68.1819 65.2727 69.086C64.8062 69.9902 64.3422 71.0168 63.8698 72.0049C63.3972 72.9931 62.9044 73.938 62.4668 74.6607C62.0293 75.3839 61.5621 75.8532 61.5504 75.86C61.5389 75.8665 60.8989 76.0454 60.0541 76.0636C59.2094 76.0828 58.1536 76.0171 57.0616 75.9335C55.9697 75.8473 54.8392 75.7382 53.823 75.6903C52.8069 75.6421 51.9449 75.6046 51.0737 75.8402C50.2027 76.0739 49.4604 76.5439 48.6045 77.0932C47.7486 77.643 46.832 78.2895 45.9288 78.909C45.0255 79.5287 44.1433 80.1083 43.4029 80.5155C42.6626 80.9226 42.0135 81.0953 42 81.0953C41.9866 81.0953 41.3375 80.9226 40.5971 80.5155C39.8568 80.1084 38.9745 79.5284 38.0712 78.909C37.168 78.2892 36.2543 77.6429 35.3983 77.0931C34.5424 76.5434 33.7974 76.0735 32.9263 75.8402C32.0552 75.6065 31.1931 75.6424 30.177 75.6903C29.1608 75.7384 28.0332 75.8483 26.9412 75.9335C25.8492 76.0197 24.7934 76.0808 23.9487 76.0636C23.104 76.0444 22.4642 75.8667 22.4524 75.8599C22.4409 75.8534 21.9538 75.3839 21.5162 74.6607C21.0787 73.9376 20.6027 72.9931 20.1302 72.0049C19.6577 71.0168 19.1938 69.99 18.7273 69.086C18.2608 68.1818 17.8518 67.4044 17.2141 66.7667C16.5764 66.1288 15.8158 65.737 14.9117 65.2705C14.0076 64.8041 12.9809 64.3204 11.9927 63.8478C11.0046 63.3756 10.0596 62.9028 9.3368 62.4648C8.61399 62.027 8.14713 61.5599 8.14035 61.5484C8.13357 61.5385 7.9514 60.8965 7.93387 60.0522C7.91663 59.2073 7.97903 58.1319 8.06398 57.0399C8.14923 55.948 8.25915 54.8373 8.30723 53.8212C8.35512 52.8051 8.39037 51.9431 8.15731 51.072C7.92389 50.2004 7.45402 49.4588 6.9043 48.6029C6.35459 47.7466 5.71076 46.8305 5.09126 45.9272C4.47171 45.024 3.86921 44.1221 3.46206 43.3817C3.05487 42.6413 2.90202 42.0122 2.90202 41.9986C2.90202 41.9888 3.05496 41.3359 3.46206 40.5957C3.86924 39.8553 4.47174 38.9731 5.09126 38.07C5.71079 37.1668 6.35458 36.2333 6.9043 35.3774C7.45402 34.5211 7.92389 33.7962 8.15731 32.9252C8.39074 32.0545 8.35531 31.192 8.30723 30.176C8.25934 29.1598 8.14885 28.0322 8.06398 26.9403C7.97874 25.8483 7.91625 24.7898 7.93388 23.9451C7.95112 23.1003 8.13365 22.4605 8.14036 22.4489C8.14714 22.439 8.614 21.9504 9.3368 21.5127C10.0596 21.075 11.0046 20.6021 11.9927 20.1296C12.9809 19.6574 14.0076 19.1931 14.9117 18.7267C15.8157 18.2602 16.5764 17.8486 17.2141 17.2107C17.8518 16.5728 18.2609 15.8124 18.7273 14.9084C19.1938 14.0042 19.6578 12.9804 20.1302 11.9923C20.6028 11.0043 21.0786 10.0395 21.5162 9.31669C21.9537 8.59354 22.4406 8.14397 22.4524 8.13726C22.4639 8.1307 23.104 7.948 23.9487 7.93081C24.7934 7.91166 25.8492 7.98062 26.9412 8.06376C28.0332 8.14996 29.1608 8.23929 30.177 8.28718C31.1931 8.33534 32.0551 8.37289 32.9263 8.13726C33.7974 7.90356 34.5424 7.45396 35.3983 6.90408C36.2543 6.3543 37.168 5.68798 38.0712 5.06846C38.9745 4.44876 39.8567 3.86912 40.5971 3.46194C41.3374 3.0549 41.9865 2.8991 42 2.8991ZM42 14.3654C26.7559 14.3654 14.363 26.7551 14.363 41.9986C14.363 57.2422 26.7559 69.6206 42 69.6206C57.2441 69.6206 69.6342 57.2422 69.6342 41.9986C69.6342 26.7551 57.2441 14.3654 42 14.3654ZM42 17.2616C48.3166 17.2616 54.0709 19.6214 58.4391 23.5067L50.2196 31.7259V29.2455H48.777H43.9771V25.1839V23.7301H41.0807V25.1839V29.2455H39.593C35.6041 29.2455 32.2927 32.4085 32.2927 36.3419C32.2927 39.9347 35.0562 42.8863 38.5747 43.3704L23.5074 58.4371C19.6209 54.0713 17.2622 48.3161 17.2622 41.9986C17.2622 28.3203 28.3212 17.2616 42 17.2616ZM60.4869 25.5516C64.375 29.9203 66.735 35.6797 66.735 41.9986C66.735 55.6769 55.6788 66.7243 42 66.7243C35.6826 66.7243 29.9236 64.3685 25.5553 60.4849L33.7776 52.2628V54.7405H35.2315H41.0807V58.802V60.2558H43.9771V58.802V54.7405H44.4155C48.4043 54.7405 51.7045 51.5746 51.7045 47.6412C51.7045 44.0458 48.9458 41.0936 45.4253 40.6127L60.4869 25.5516ZM39.593 32.1417H48.777H49.8038L41.4004 40.5448H39.593C37.1067 40.5448 35.189 38.667 35.189 36.3419C35.189 34.0166 37.1068 32.1417 39.593 32.1417ZM42.5996 43.4411H43.4538H44.4155C46.9016 43.4411 48.8081 45.316 48.8081 47.6412C48.8081 49.9665 46.9017 51.8442 44.4155 51.8442H35.2315H34.1962L42.5996 43.4411Z" fill="#209AE3"/>
</svg>
