<svg width="84" height="84" viewBox="0 0 84 84" fill="none" xmlns="http://www.w3.org/2000/svg">
<path id="Vector" d="M82.9298 26.7658C82.1832 25.9789 81.1621 25.5972 80.0606 25.6641C77.0609 25.8818 74.637 28.3162 74.4261 31.3333L73.5188 45.0661C71.3528 44.2758 68.8485 44.748 67.1478 46.4491L62.0087 51.5891C61.3559 52.2622 60.693 52.7076 59.7422 53.1194C54.0307 55.4969 50.2177 60.8345 49.796 67.0495C49.7927 67.0762 49.7927 67.1064 49.7927 67.1365V73.2878H49.1332C48.4234 73.2878 47.8476 73.8638 47.8476 74.5737V82.7141C47.8476 83.4239 48.4234 83.9999 49.1332 83.9999H69.0298C69.7396 83.9999 70.3154 83.4239 70.3154 82.7141V74.5737C70.3154 73.8638 69.7396 73.2878 69.0298 73.2878H68.5678V73.1941C68.8424 69.9694 70.0877 67.2939 72.371 65.0102L78.809 58.5709C81.1827 56.1968 82.4415 53.4141 82.6558 50.0655L83.9916 29.5854C84.0619 28.5072 83.6898 27.5227 82.9298 26.7658ZM67.7401 81.4281H50.4146V75.8594H67.7401V81.4281ZM80.0869 49.9017C79.9128 52.6006 78.8984 54.8408 76.9867 56.7528L70.5488 63.1921C67.8068 65.9345 66.317 69.1559 65.9956 73.0331C65.9923 73.0666 65.9923 73.1034 65.9923 73.1369V73.2842L52.3598 73.2876V67.1832C52.7315 61.9661 55.9354 57.4887 60.7429 55.4897C62.0118 54.9405 62.9693 54.2909 63.8398 53.3968L68.9654 48.2702C70.2008 47.0345 72.1794 46.9039 73.5855 47.9855C73.8332 48.1697 73.9638 48.4242 73.9872 48.759C74.0107 49.1341 73.9203 49.3953 73.6826 49.633L63.5521 59.7389C63.0499 60.2412 63.0466 61.0549 63.5488 61.5572C64.0509 62.0594 64.8645 62.0628 65.3667 61.5605L75.5006 51.4512C76.2639 50.6877 76.6255 49.6965 76.5518 48.5814C76.5083 47.9419 76.2974 47.3592 75.976 46.8569L76.9904 31.5108C77.1143 29.7661 78.5137 28.3564 80.2446 28.2325C80.5626 28.2125 80.8539 28.3129 81.0916 28.5641C81.3393 28.8118 81.4465 29.0831 81.423 29.4179L80.0869 49.9017ZM34.8941 73.2878H34.2077L34.2044 67.0562C33.816 60.9417 29.909 55.4732 24.2848 53.133C23.3272 52.7111 22.6577 52.259 21.9814 51.5793L16.8692 46.4426C15.1551 44.7515 12.6441 44.2861 10.5048 45.0629L9.59755 31.3301C9.38663 28.3197 6.96277 25.8853 3.95302 25.6643C2.85496 25.5906 1.86394 25.9657 1.08718 26.7425C0.307119 27.5227 -0.0645374 28.5072 0.00916993 29.5821L1.36838 50.0656C1.586 53.4142 2.84484 56.1968 5.21513 58.571L11.6531 65.0103C13.9331 67.294 15.1785 69.9695 15.4563 73.1942V73.2879H14.9943C14.2846 73.2879 13.7087 73.8639 13.7087 74.5738V82.7141C13.7087 83.424 14.2846 84 14.9943 84H34.891C35.6008 84 36.1766 83.424 36.1766 82.7141V74.5738C36.18 73.8639 35.6038 73.2878 34.8941 73.2878ZM13.4744 63.1922L7.03638 56.7529C5.1247 54.8409 4.11028 52.5973 3.93622 49.8984L2.57366 29.4123C2.55022 29.0808 2.65736 28.8129 2.9051 28.5617C3.15955 28.3073 3.42403 28.2001 3.77553 28.2302C5.50971 28.3575 6.90912 29.7673 7.03305 31.5051L8.04747 46.8384C7.70933 47.3474 7.49172 47.9334 7.4482 48.5864C7.37454 49.6813 7.7495 50.6759 8.52621 51.4528L18.6335 61.5587C19.1357 62.061 19.9493 62.061 20.4514 61.5587C20.9536 61.0564 20.9536 60.2427 20.4514 59.7404L10.3407 49.6345C10.0862 49.38 9.98582 49.1122 10.0092 48.7606C10.026 48.5228 10.0996 48.3286 10.2436 48.1645C10.2737 48.1344 10.3072 48.1076 10.334 48.0741C10.3742 48.0406 10.4077 48.0005 10.4545 47.9703C11.8305 46.9122 13.8125 47.0462 15.0512 48.2684L20.1567 53.3984C21.054 54.2958 22.0047 54.9421 23.2702 55.4979C28.0276 57.4769 31.3119 62.0812 31.6366 67.1408V73.2922L18.0308 73.2888V73.1415C18.0308 73.108 18.0274 73.0711 18.0274 73.0377C17.706 69.1567 16.2195 65.9388 13.4743 63.1932L13.4744 63.1922ZM33.6085 81.4281H16.2795V75.8594H33.605L33.6085 81.4281ZM52.193 45.8024C56.09 45.8024 59.2604 42.6313 59.2604 38.7336V37.5415C59.2604 36.2992 59.699 35.231 60.5627 34.3704L61.3896 33.5433C62.7288 32.2039 63.4653 30.4191 63.4587 28.5238C63.452 26.6386 62.7188 24.8739 61.4031 23.5747L60.5628 22.7108C59.689 21.8368 59.2605 20.7987 59.2605 19.5397V18.3744C59.2605 14.4766 56.09 11.3055 52.193 11.3055H51.0012C49.7592 11.3055 48.7213 10.8702 47.8308 9.97949L47.0038 9.1524C45.668 7.81632 43.8937 7.08295 42.0055 7.08295C40.1139 7.08295 38.3429 7.81964 37.0372 9.14228L36.1634 9.99282C35.2963 10.8768 34.2617 11.3054 33.003 11.3054H31.8379C27.9409 11.3054 24.7705 14.4765 24.7705 18.3742V19.5396C24.7705 20.802 24.3386 21.8367 23.4313 22.7274L22.6178 23.5646C19.8825 26.3003 19.8792 30.7774 22.6178 33.547L23.4547 34.3842C24.3385 35.2481 24.7671 36.2828 24.7671 37.5452V38.7373C24.7671 42.635 27.9375 45.8061 31.8345 45.8061H32.9996C34.2584 45.8061 35.2962 46.2314 36.1868 47.1187L37.0204 47.9257C38.3462 49.2651 40.1139 50.0018 42.0055 50.0018C43.8937 50.0018 45.668 49.2651 47.0038 47.9324L47.8207 47.1153C48.7213 46.2347 49.7625 45.8061 51.0012 45.8061L52.193 45.8024ZM46.0095 45.2833L45.1825 46.1104C44.3322 46.961 43.2039 47.4298 42.0021 47.4298C40.8035 47.4298 39.682 46.9644 38.8249 46.0971L37.988 45.2867C36.6254 43.9239 34.9447 43.2341 32.9963 43.2341H31.8312C29.3504 43.2341 27.3349 41.2149 27.3349 38.737V37.5449C27.3349 35.6094 26.6118 33.8816 25.2592 32.5555L24.4356 31.7318C22.6948 29.9704 22.6913 27.1208 24.4457 25.3662L25.2492 24.5391C26.6319 23.1829 27.3349 21.4986 27.3349 19.5397V18.3744C27.3349 15.8931 29.3537 13.8773 31.8312 13.8773H32.9962C34.9581 13.8773 36.6421 13.1741 37.9746 11.8112L38.8417 10.9673C39.6786 10.1201 40.8002 9.65472 42.0021 9.65472C43.2039 9.65472 44.3356 10.1235 45.1825 10.9707L46.0095 11.7978C47.3888 13.1775 49.0661 13.8773 50.9978 13.8773H52.1897C54.6704 13.8773 56.6859 15.8965 56.6859 18.3744V19.5397C56.6859 21.4886 57.3756 23.1663 58.7248 24.5191L59.5684 25.3897C60.4121 26.2235 60.8774 27.3418 60.8808 28.5373C60.8841 29.7428 60.4154 30.878 59.5617 31.7319L58.7347 32.559C57.3922 33.9018 56.6825 35.6263 56.6825 37.5517V38.7437C56.6825 41.225 54.6637 43.2409 52.1863 43.2409H50.9944C49.0794 43.2308 47.4055 43.9171 46.0095 45.2833ZM55.9291 28.5502C55.9291 20.8753 49.6852 14.6305 42.0121 14.6305C34.339 14.6305 28.0952 20.8756 28.0952 28.5502C28.0952 36.2248 34.339 42.4699 42.0121 42.4699C49.6855 42.4733 55.9291 36.2282 55.9291 28.5502ZM42.0121 39.9016C35.7549 39.9016 30.6663 34.8118 30.6663 28.5536C30.6663 22.2954 35.7551 17.2056 42.0121 17.2056C48.2694 17.2056 53.3579 22.2954 53.3579 28.5536C53.3579 34.8088 48.2691 39.9016 42.0121 39.9016ZM40.7265 4.71143V1.28585C40.7265 0.575957 41.3024 0 42.0121 0C42.7219 0 43.2977 0.575957 43.2977 1.28585V4.71143C43.2977 5.42132 42.7219 5.99728 42.0121 5.99728C41.3024 5.99728 40.7265 5.42132 40.7265 4.71143ZM61.6945 17.3559C61.343 16.7397 61.5539 15.9528 62.1699 15.6012L65.1328 13.9001C65.7488 13.5452 66.5356 13.7595 66.8871 14.3756C67.2387 14.9917 67.0277 15.7786 66.4117 16.1303L63.4489 17.8314C63.248 17.9486 63.027 18.0021 62.8094 18.0021C62.3641 18.0021 61.9323 17.7711 61.6945 17.3559ZM17.1107 14.3787C17.4622 13.7592 18.2456 13.5482 18.865 13.8965L21.8547 15.5976C22.4707 15.9492 22.6883 16.7327 22.3368 17.3523C22.0991 17.7675 21.6672 18.0019 21.2186 18.0019C21.001 18.0019 20.7834 17.9483 20.5825 17.8344L17.5928 16.1334C16.9734 15.7818 16.7592 14.9949 17.1107 14.3787ZM43.2974 52.7501V56.1991C43.2974 56.909 42.7215 57.4849 42.0118 57.4849C41.302 57.4849 40.7262 56.909 40.7262 56.1991V52.7501C40.7262 52.0402 41.302 51.4642 42.0118 51.4642C42.7215 51.4642 43.2974 52.0435 43.2974 52.7501ZM66.4183 41.3616C67.0343 41.7199 67.2419 42.5068 66.8837 43.1196C66.646 43.5315 66.2141 43.7592 65.7721 43.7592C65.5512 43.7592 65.3302 43.7023 65.126 43.5851L62.1631 41.8606C61.5471 41.5023 61.3396 40.7154 61.6978 40.1026C62.056 39.4864 62.8427 39.2822 63.4554 39.6371L66.4183 41.3616ZM17.5855 41.3616L20.5752 39.6371C21.1912 39.2822 21.978 39.4898 22.3329 40.1093C22.6877 40.7254 22.4768 41.5123 21.8608 41.8673L18.8711 43.5918C18.6702 43.709 18.4493 43.7625 18.2283 43.7625C17.7831 43.7625 17.3512 43.5315 17.1135 43.1196C16.7586 42.5001 16.9695 41.7132 17.5855 41.3616ZM40.0165 25.8517C40.0165 26.6185 40.9305 27.2614 42.0085 27.2614C44.5261 27.2614 46.575 29.0495 46.575 31.2428C46.575 33.0511 45.189 34.5813 43.2941 35.0669V35.7399C43.2941 36.4498 42.7183 37.0258 42.0085 37.0258C41.2988 37.0258 40.7229 36.4498 40.7229 35.7399V35.0669C38.828 34.5813 37.4454 33.051 37.4454 31.2428C37.4454 30.5329 38.0212 29.957 38.7309 29.957C39.4407 29.957 40.0165 30.5329 40.0165 31.2428C40.0165 32.0097 40.9305 32.6526 42.0085 32.6526C43.0899 32.6526 44.0038 32.0063 44.0038 31.2428C44.0038 30.4794 43.0899 29.8331 42.0085 29.8331C39.4909 29.8331 37.4454 28.045 37.4454 25.8517C37.4454 24.0334 38.8314 22.4964 40.7229 22.0075V21.3345C40.7229 20.6246 41.2988 20.0486 42.0085 20.0486C42.7183 20.0486 43.2941 20.6246 43.2941 21.3345V22.0075C45.189 22.4964 46.575 24.0334 46.575 25.8517C46.575 26.5616 45.9992 27.1376 45.2894 27.1376C44.5797 27.1376 44.0038 26.5616 44.0038 25.8517C44.0038 25.0748 43.0899 24.4152 42.0085 24.4152C40.9305 24.4185 40.0165 25.0748 40.0165 25.8517Z" fill="#209AE3"/>
</svg>
